# xmcd
# Track frame offsets:
# 150
# 12617
# 23367
# 34500
# 43987
# 54064
# 67367
# 79550
# 91215
# 100880
# 114307
# 130080
# 141360
# 156042
# 170757
# 183122
#
# Disc length: 2628 seconds
# Revision: 0
# Processed by: cddbd v1.4PL0 Copyright (c) Steve Scherf et al.
# Submitted via: VisiTrax 2.9.5.180 - For more info visit www.synapsa.com
#
DISCID=c90a4210
DTITLE=Don Williams - Country Love Songs
DYEAR=1900
DGENRE=
TTITLE0=There's never been a time
TTITLE1=(There's a) Alwas something there to remind me
TTITLE2=Spend some time with me
TTITLE3=In my life
TTITLE4=Take my hand
TTITLE5=Where do I go from here
TTITLE6=On her way to being a woman
TTITLE7=Follow me back to Louisville
TTITLE8=Apartment #9
TTITLE9=Ruby tuesday
TTITLE10=Tears
TTITLE11=Storybook children
TTITLE12=Ordinary
TTITLE13=Long walk from childhood
TTITLE14=Coming apart
TTITLE15=There's no angel on my shoulder
EXTD=
EXTT0=
EXTT1=
EXTT2=
EXTT3=
EXTT4=
EXTT5=
EXTT6=
EXTT7=
EXTT8=
EXTT9=
EXTT10=
EXTT11=
EXTT12=
EXTT13=
EXTT14=
EXTT15=
PLAYORDER=
